<svg height="512pt" viewBox="0 0 512 512" width="512pt" xmlns="http://www.w3.org/2000/svg"><path d="m42.472656 225.304688 203.648438-203.648438 248.902344 248.902344-203.648438 203.648437zm0 0" fill="#ff8a65"/><path d="m260.3125 443.136719 31.070312 31.070312 203.648438-203.648437-14.773438-14.773438zm0 0" fill="#ff7043"/><path d="m234.816406 349.75 79.195313-79.195312 33.941406 33.941406-79.195313 79.195312zm0 0" fill="#e2fc85"/><path d="m122.078125 298.878906c.039063-10.617187-4.164063-20.8125-11.679687-28.320312l-75.519532 75.441406c-6 6.007812-9.367187 14.152344-9.359375 22.640625v32l-25.519531 25.519531v85.839844h83.953125l32.046875-32.160156 34-11.28125 67.839844-67.839844-96.160156-96.160156c.253906-1.882813.386718-3.777344.398437-5.679688zm0 0" fill="#ffdecf"/><path d="m512 0h-85.839844l-55.601562 55.601562h-45.199219l-79.199219 79.199219c15.59375 15.601563 40.886719 15.601563 56.480469 0l28.320313-28.320312 90.558593 90.558593 33.921875-34 11.277344-33.917968 45.28125-45.183594zm0 0" fill="#ffdecf"/><path d="m110.363281 236.617188 56.570313-56.570313 11.3125 11.316406-56.566406 56.566407zm0 0" fill="#fff"/><path d="m144.3125 247.929688 33.941406-33.941407 11.3125 11.3125-33.941406 33.941407zm0 0" fill="#fff"/><path d="m223.496094 349.761719 45.304687 45.246093 90.464844-90.503906-45.257813-45.265625zm45.304687 22.621093-22.671875-22.621093 67.878906-67.898438 22.632813 22.640625zm0 0"/><path d="m170.339844 498.34375 48-48 11.3125 11.316406-47.996094 47.996094zm0 0"/><path d="m226.34375 498.34375 24-24.003906 11.316406 11.316406-24.003906 24zm0 0"/><path d="m462.398438 167.351562 11.28125-33.910156 35.96875-35.839844-11.296876-11.328124-38.625 38.527343-11.277343 33.925781-26.9375 26.992188-90.527344-90.519531-33.945313 33.945312c-10.332031 10.289063-26.304687 12.316407-38.878906 4.933594l70.472656-70.476563h45.253907l49.929687-49.945312-11.320312-11.3125-45.230469 45.257812h-45.257813l-19.3125 19.308594-56.566406-56.566406-214.929687 214.960938 56.578125 56.582031-58.554688 58.457031c-7.46875 7.527344-11.675781 17.691406-11.703125 28.296875v28.6875l-15.199219 15.199219 11.3125 11.3125 19.886719-19.886719v-35.3125c.015625-6.363281 2.535157-12.464844 7.015625-16.984375l69.144532-69.070312c2.898437 4.9375 4.417968 10.566406 4.398437 16.292968.058594 8.480469-3.308594 16.621094-9.335937 22.585938l-28.292969 28.296875 5.65625 5.652343c9.339843 9.375 9.355469 24.535157.039062 33.929688l-5.679687 5.601562 11.199218 11.390626 5.71875-5.601563c13.4375-13.464844 15.5625-34.519531 5.089844-50.398437l17.527344-17.535157c3.871094-3.847656 7.042969-8.339843 9.375-13.273437l13.273438 13.273437-11.3125 11.320313 11.3125 11.3125 11.3125-11.320313 11.320312 11.3125-11.320312 11.316407 11.3125 11.3125 11.320312-11.320313 11.308594 11.320313-11.316406 11.3125 11.308593 11.3125 11.304688-11.328126 11.304687 11.304688-60.824218 60.945312-34 11.277344-25.421876 25.503906 11.34375 11.265626 22.734376-22.816407 34-11.28125 63.496093-63.550781 73.550781 73.542969 214.960938-214.957031-73.519531-73.523438zm21.289062 103.199219-192.304688 192.335938-19.277343-19.277344 207.71875-176.945313zm-15.246094-15.246093-207.6875 176.953124-130.800781-130.792968c.046875-.863282.125-1.710938.125-2.585938.054687-12.742187-4.996094-24.976562-14.023437-33.976562l-5.65625-5.644532-11.335938 11.316407-45.261719-45.269531 192.328125-192.335938 45.253906 45.253906-56.566406 56.578125 5.65625 5.65625c18.757813 18.707031 49.121094 18.707031 67.878906 0l22.632813-22.632812zm0 0"/><path d="m2.34375 306.34375 40-40 11.3125 11.3125-40 40zm0 0"/><path d="m2.339844 250.34375 16-16 11.3125 11.316406-16 15.996094zm0 0"/></svg>