<svg xmlns="http://www.w3.org/2000/svg" width="115.346" height="110.573" viewBox="0 0 115.346 110.573">
  <g id="exchange-ideas" transform="translate(-6.327 -8.714)">
    <path id="Trazado_1370" data-name="Trazado 1370" d="M79.121,35.149a2,2,0,0,0,3.305-1.515V28.786A13.768,13.768,0,0,1,95.383,42.514v3.773a1,1,0,0,0,1,1h7.187a1,1,0,0,0,1-1V42.514A22.966,22.966,0,0,0,82.426,19.59V14.717A2,2,0,0,0,79.121,13.2L68.127,22.663a2,2,0,0,0,0,3.033Z" fill="#e6e7e8"/>
    <path id="Trazado_1371" data-name="Trazado 1371" d="M52.879,96.852a2,2,0,0,0-3.305,1.515v4.848A13.768,13.768,0,0,1,36.617,89.487V85.714a1,1,0,0,0-1-1H28.43a1,1,0,0,0-1,1v3.773a22.966,22.966,0,0,0,22.144,22.924v4.873a1.978,1.978,0,0,0,1.165,1.817,2.01,2.01,0,0,0,.841.186,1.987,1.987,0,0,0,1.3-.487l10.994-9.461a2,2,0,0,0,0-3.033Z" fill="#e6e7e8"/>
    <circle id="Elipse_96" data-name="Elipse 96" cx="29.173" cy="29.173" r="29.173" transform="translate(10.327 18.827)" fill="#e6e7e8"/>
    <circle id="Elipse_97" data-name="Elipse 97" cx="29.173" cy="29.173" r="29.173" transform="translate(63.327 54.827)" fill="#e6e7e8"/>
    <path id="Trazado_1372" data-name="Trazado 1372" d="M99.57,38.513v3.773H92.383V38.513A14.751,14.751,0,0,0,77.632,23.762h-.207v5.87a1,1,0,0,1-1.652.758l-11-9.455a1,1,0,0,1,0-1.516l11-9.462a1,1,0,0,1,1.652.758v5.86h.207A21.939,21.939,0,0,1,99.57,38.513Z" fill="#52dd62"/>
    <path id="Trazado_1373" data-name="Trazado 1373" d="M24.43,85.487V81.714h7.187v3.773a14.751,14.751,0,0,0,14.751,14.751h.207v-5.87a1,1,0,0,1,1.652-.758l11,9.455a1,1,0,0,1,0,1.516l-11,9.462a1,1,0,0,1-1.652-.758v-5.86h-.207A21.938,21.938,0,0,1,24.43,85.487Z" fill="#9300ef"/>
    <circle id="Elipse_98" data-name="Elipse 98" cx="28.173" cy="28.173" r="28.173" transform="translate(7.327 15.827)" fill="#ad6df7"/>
    <path id="Trazado_1374" data-name="Trazado 1374" d="M46.809,42.074A11.081,11.081,0,0,0,35.683,31.219c-6.22-.095-11.482,4.863-11.493,10.835A10.663,10.663,0,0,0,28.3,50.445a9.246,9.246,0,0,1,3.052,4.474l.265.84h7.76l.306-.969a8.817,8.817,0,0,1,2.955-4.3,10.67,10.67,0,0,0,4.168-8.415Z" fill="#d4fbff"/>
    <path id="Trazado_1375" data-name="Trazado 1375" d="M36.73,62.24H34.27a3.307,3.307,0,0,1-3.307-3.307V55.76h9.075v3.173A3.308,3.308,0,0,1,36.73,62.24Z" fill="#0089ef"/>
    <path id="Trazado_1404" data-name="Trazado 1404" d="M28.173,0A28.173,28.173,0,1,1,0,28.173,28.173,28.173,0,0,1,28.173,0Z" transform="translate(60.327 51.827)" fill="#52dd62"/>
    <path id="Trazado_1376" data-name="Trazado 1376" d="M88.5,54.828A28.173,28.173,0,0,1,116.632,81.5c.026-.5.041-1,.041-1.5a28.173,28.173,0,0,0-56.346,0c0,.5.015,1,.041,1.5A28.173,28.173,0,0,1,88.5,54.828Z" fill="#fff"/>
    <path id="Trazado_1377" data-name="Trazado 1377" d="M99.809,78.074A11.081,11.081,0,0,0,88.683,67.219c-6.22-.1-11.482,4.863-11.493,10.835A10.663,10.663,0,0,0,81.3,86.445a9.246,9.246,0,0,1,3.052,4.474l.265.84h7.76l.306-.969a8.817,8.817,0,0,1,2.955-4.3,10.67,10.67,0,0,0,4.168-8.415Z" fill="#ffd7e5"/>
    <path id="Trazado_1378" data-name="Trazado 1378" d="M89.73,98.24H87.27a3.307,3.307,0,0,1-3.307-3.307V91.76h9.075v3.173A3.308,3.308,0,0,1,89.73,98.24Z" fill="#0089ef"/>
    <g id="Grupo_2435" data-name="Grupo 2435">
      <path id="Trazado_1379" data-name="Trazado 1379" d="M75.121,31.149a2,2,0,0,0,3.305-1.515V24.786A13.768,13.768,0,0,1,91.383,38.514v3.773a1,1,0,0,0,1,1H99.57a1,1,0,0,0,1-1V38.514A22.966,22.966,0,0,0,78.426,15.59V10.717A2,2,0,0,0,75.121,9.2L64.127,18.663a2,2,0,0,0,0,3.033Zm1.305-20.433v5.859a1,1,0,0,0,1,1h.207A20.961,20.961,0,0,1,98.57,38.513v2.773H93.383V38.513a15.767,15.767,0,0,0-15.75-15.75h-.207a1,1,0,0,0-1,1v5.87l-11-9.455Z" fill="#3a2c60"/>
      <path id="Trazado_1380" data-name="Trazado 1380" d="M48.879,92.852a2,2,0,0,0-3.305,1.515v4.848A13.768,13.768,0,0,1,32.617,85.487V81.714a1,1,0,0,0-1-1H24.43a1,1,0,0,0-1,1v3.773a22.966,22.966,0,0,0,22.144,22.924v4.873a1.978,1.978,0,0,0,1.165,1.817,2.01,2.01,0,0,0,.841.186,1.987,1.987,0,0,0,1.3-.487l10.994-9.461a2,2,0,0,0,0-3.033Zm-1.305,20.433v-5.859a1,1,0,0,0-1-1h-.207A20.961,20.961,0,0,1,25.43,85.488V82.715h5.187v2.773a15.767,15.767,0,0,0,15.75,15.75h.207a1,1,0,0,0,1-1v-5.87l10.995,9.455Z" fill="#3a2c60"/>
      <path id="Trazado_1381" data-name="Trazado 1381" d="M10.933,30.163a1,1,0,0,0,1.375-.331,27.169,27.169,0,0,1,7.418-7.961,1,1,0,1,0-1.163-1.627A29.14,29.14,0,0,0,10.6,28.787a1,1,0,0,0,.331,1.376Z" fill="#3a2c60"/>
      <path id="Trazado_1382" data-name="Trazado 1382" d="M64.673,44A29.189,29.189,0,0,0,23.788,17.273a1,1,0,1,0,.8,1.832A27.149,27.149,0,1,1,10.079,34.382a1,1,0,1,0-1.871-.709A29.176,29.176,0,1,0,64.673,44Z" fill="#3a2c60"/>
      <path id="Trazado_1383" data-name="Trazado 1383" d="M27.683,51.229a8.179,8.179,0,0,1,2.635,3.781.985.985,0,0,0-.355.749v3.173A4.313,4.313,0,0,0,34.27,63.24h2.461a4.313,4.313,0,0,0,4.307-4.308V55.759A.983.983,0,0,0,40.674,55a7.77,7.77,0,0,1,2.584-3.727,11.649,11.649,0,0,0,4.552-9.2A12.132,12.132,0,0,0,35.7,30.22h-.186a12.6,12.6,0,0,0-8.778,3.6,11.489,11.489,0,0,0,.947,17.413Zm11.354,7.7A2.311,2.311,0,0,1,36.73,61.24H34.27a2.311,2.311,0,0,1-2.307-2.308V56.759h7.074Zm-10.9-23.69a10.585,10.585,0,0,1,7.53-3.022A10.126,10.126,0,0,1,45.81,42.075,9.661,9.661,0,0,1,42.026,49.7a9.773,9.773,0,0,0-3.294,4.788l-.085.27H36.532V47.395h1.062a1,1,0,0,0,0-2H33.47a1,1,0,0,0,0,2h1.062V54.76H32.354l-.045-.141a10.2,10.2,0,0,0-3.384-4.957,9.661,9.661,0,0,1-3.734-7.6,9.55,9.55,0,0,1,2.947-6.815Z" fill="#3a2c60"/>
      <path id="Trazado_1384" data-name="Trazado 1384" d="M21.885,41.46a1,1,0,0,0-1-1h-1.74a1,1,0,1,0,0,2h1.74A1,1,0,0,0,21.885,41.46Z" fill="#3a2c60"/>
      <path id="Trazado_1385" data-name="Trazado 1385" d="M52.855,41.46a1,1,0,0,0-1-1h-1.74a1,1,0,0,0,0,2h1.74A1,1,0,0,0,52.855,41.46Z" fill="#3a2c60"/>
      <path id="Trazado_1386" data-name="Trazado 1386" d="M20.852,34.486l1.507.835a1,1,0,1,0,.968-1.75l-1.507-.835a1,1,0,1,0-.968,1.75Z" fill="#3a2c60"/>
      <path id="Trazado_1387" data-name="Trazado 1387" d="M48.642,47.6a1,1,0,1,0-.968,1.75l1.507.835a1,1,0,1,0,.968-1.75Z" fill="#3a2c60"/>
      <path id="Trazado_1388" data-name="Trazado 1388" d="M28.193,30.311a.987.987,0,0,0,.515-.144,1,1,0,0,0,.341-1.372l-.87-1.446a1,1,0,1,0-1.713,1.031l.87,1.446a1,1,0,0,0,.857.485Z" fill="#3a2c60"/>
      <path id="Trazado_1389" data-name="Trazado 1389" d="M36.5,27.431v-1.67a1,1,0,0,0-2,0v1.67a1,1,0,0,0,2,0Z" fill="#3a2c60"/>
      <path id="Trazado_1390" data-name="Trazado 1390" d="M21.337,50.311a.991.991,0,0,0,.483-.125l1.507-.835a1,1,0,1,0-.968-1.75l-1.507.835a1,1,0,0,0,.485,1.875Z" fill="#3a2c60"/>
      <path id="Trazado_1391" data-name="Trazado 1391" d="M49.18,32.736l-1.507.835a1,1,0,1,0,.968,1.75l1.507-.835a1,1,0,0,0-.968-1.75Z" fill="#3a2c60"/>
      <path id="Trazado_1392" data-name="Trazado 1392" d="M42.807,30.311a1,1,0,0,0,.857-.484l.87-1.446a1,1,0,0,0-1.713-1.031l-.87,1.446a1,1,0,0,0,.856,1.515Z" fill="#3a2c60"/>
      <path id="Trazado_1393" data-name="Trazado 1393" d="M88.5,50.827A29.173,29.173,0,1,0,117.673,80,29.206,29.206,0,0,0,88.5,50.827Zm0,56.346A27.173,27.173,0,1,1,115.673,80,27.2,27.2,0,0,1,88.5,107.173Z" fill="#3a2c60"/>
      <path id="Trazado_1394" data-name="Trazado 1394" d="M88.7,66.219a12.469,12.469,0,0,0-8.964,3.6,11.49,11.49,0,0,0,.947,17.414,8.179,8.179,0,0,1,2.635,3.781.985.985,0,0,0-.355.749v3.173a4.313,4.313,0,0,0,4.307,4.308H89.73a4.313,4.313,0,0,0,4.307-4.308V91.759A.983.983,0,0,0,93.673,91a7.77,7.77,0,0,1,2.584-3.727,11.649,11.649,0,0,0,4.552-9.2A12.132,12.132,0,0,0,88.7,66.219Zm3.338,28.713A2.311,2.311,0,0,1,89.73,97.24H87.27a2.311,2.311,0,0,1-2.307-2.308V92.759h7.074Zm2.988-9.23a9.773,9.773,0,0,0-3.294,4.788l-.085.27H89.531V83.395h1.062a1,1,0,0,0,0-2H86.47a1,1,0,0,0,0,2h1.062V90.76H85.354l-.045-.141a10.2,10.2,0,0,0-3.384-4.957,9.661,9.661,0,0,1-3.734-7.605,9.558,9.558,0,0,1,2.947-6.814,10.467,10.467,0,0,1,7.53-3.022A10.126,10.126,0,0,1,98.81,78.076,9.66,9.66,0,0,1,95.025,85.7Z" fill="#3a2c60"/>
      <path id="Trazado_1395" data-name="Trazado 1395" d="M74.885,77.46a1,1,0,0,0-1-1h-1.74a1,1,0,0,0,0,2h1.74A1,1,0,0,0,74.885,77.46Z" fill="#3a2c60"/>
      <path id="Trazado_1396" data-name="Trazado 1396" d="M104.855,76.46h-1.74a1,1,0,0,0,0,2h1.74a1,1,0,0,0,0-2Z" fill="#3a2c60"/>
      <path id="Trazado_1397" data-name="Trazado 1397" d="M73.852,70.486l1.507.835a1,1,0,0,0,.968-1.75l-1.507-.835a1,1,0,1,0-.968,1.75Z" fill="#3a2c60"/>
      <path id="Trazado_1398" data-name="Trazado 1398" d="M103.148,84.436l-1.507-.835a1,1,0,0,0-.968,1.75l1.507.835a1,1,0,1,0,.968-1.75Z" fill="#3a2c60"/>
      <path id="Trazado_1399" data-name="Trazado 1399" d="M80.336,65.827a1,1,0,0,0,.857.484.987.987,0,0,0,.515-.144,1,1,0,0,0,.341-1.372l-.87-1.446a1,1,0,0,0-1.713,1.031Z" fill="#3a2c60"/>
      <path id="Trazado_1400" data-name="Trazado 1400" d="M88.5,64.431a1,1,0,0,0,1-1v-1.67a1,1,0,0,0-2,0v1.67A1,1,0,0,0,88.5,64.431Z" fill="#3a2c60"/>
      <path id="Trazado_1401" data-name="Trazado 1401" d="M75.358,83.6l-1.507.835a1,1,0,1,0,.968,1.75l1.507-.835a1,1,0,1,0-.968-1.75Z" fill="#3a2c60"/>
      <path id="Trazado_1402" data-name="Trazado 1402" d="M101.158,71.446a.991.991,0,0,0,.483-.125l1.507-.835a1,1,0,0,0-.968-1.75l-1.507.835a1,1,0,0,0,.485,1.875Z" fill="#3a2c60"/>
      <path id="Trazado_1403" data-name="Trazado 1403" d="M95.292,66.167a.987.987,0,0,0,.515.144,1,1,0,0,0,.857-.484l.87-1.446a1,1,0,0,0-1.713-1.031l-.87,1.446A1,1,0,0,0,95.292,66.167Z" fill="#3a2c60"/>
    </g>
  </g>
</svg>
