<svg xmlns="http://www.w3.org/2000/svg" xmlns:xlink="http://www.w3.org/1999/xlink" width="262.363" height="33.501" viewBox="0 0 262.363 33.501">
  <defs>
    <linearGradient id="linear-gradient" x1="-24.644" y1="3.678" x2="9.713" y2="-0.665" gradientUnits="objectBoundingBox">
      <stop offset="0" stop-color="#574bcd"/>
      <stop offset="0.131" stop-color="#4659c6"/>
      <stop offset="0.386" stop-color="#1c80b7"/>
      <stop offset="0.533" stop-color="#0299ad"/>
      <stop offset="0.646" stop-color="#0da7a2"/>
      <stop offset="0.86" stop-color="#2acd88"/>
      <stop offset="1" stop-color="#41e975"/>
    </linearGradient>
    <linearGradient id="linear-gradient-2" x1="-19.491" y1="9.485" x2="16.313" y2="-6.643" xlink:href="#linear-gradient"/>
    <linearGradient id="linear-gradient-3" x1="-19.589" y1="1.047" x2="16.215" y2="0.068" xlink:href="#linear-gradient"/>
    <linearGradient id="linear-gradient-4" x1="-15.357" y1="2.893" x2="12.368" y2="-1.31" xlink:href="#linear-gradient"/>
    <linearGradient id="linear-gradient-5" x1="-19.481" y1="26.925" x2="16.324" y2="-20.206" xlink:href="#linear-gradient"/>
    <linearGradient id="linear-gradient-6" x1="-2.983" y1="1.139" x2="32.082" y2="-5.295" xlink:href="#linear-gradient"/>
    <linearGradient id="linear-gradient-7" x1="-3.026" y1="1.129" x2="32.039" y2="-5.125" xlink:href="#linear-gradient"/>
    <linearGradient id="linear-gradient-8" x1="-3.005" y1="1.134" x2="32.061" y2="-5.208" xlink:href="#linear-gradient"/>
    <linearGradient id="linear-gradient-9" x1="-1.07" y1="1.181" x2="11.693" y2="-4.512" xlink:href="#linear-gradient"/>
    <linearGradient id="linear-gradient-10" x1="-1.054" y1="1.951" x2="11.709" y2="-7.969" xlink:href="#linear-gradient"/>
    <linearGradient id="linear-gradient-11" x1="-3.047" y1="1.124" x2="32.018" y2="-5.041" xlink:href="#linear-gradient"/>
    <linearGradient id="linear-gradient-12" x1="-1.062" y1="1.206" x2="11.701" y2="-4.596" xlink:href="#linear-gradient"/>
    <linearGradient id="linear-gradient-13" x1="-1.717" y1="1.148" x2="18.611" y2="-5.417" xlink:href="#linear-gradient"/>
    <linearGradient id="linear-gradient-14" x1="-3.104" y1="0.661" x2="31.961" y2="-1.162" xlink:href="#linear-gradient"/>
    <linearGradient id="linear-gradient-15" x1="-6.053" y1="1.986" x2="29.751" y2="-6.143" xlink:href="#linear-gradient"/>
    <linearGradient id="linear-gradient-16" x1="-6.076" y1="2.073" x2="29.728" y2="-6.642" xlink:href="#linear-gradient"/>
    <linearGradient id="linear-gradient-17" x1="-7.787" y1="2.256" x2="27.962" y2="-5.32" xlink:href="#linear-gradient"/>
    <linearGradient id="linear-gradient-18" x1="-7.823" y1="2.241" x2="27.981" y2="-5.25" xlink:href="#linear-gradient"/>
    <linearGradient id="linear-gradient-19" x1="-2.153" y1="2.063" x2="10.768" y2="-5.52" xlink:href="#linear-gradient"/>
    <linearGradient id="linear-gradient-20" x1="-4.148" y1="2.069" x2="20.128" y2="-6.416" xlink:href="#linear-gradient"/>
    <linearGradient id="linear-gradient-21" x1="-7.891" y1="2.201" x2="27.913" y2="-5.057" xlink:href="#linear-gradient"/>
    <linearGradient id="linear-gradient-22" x1="-7.712" y1="2.827" x2="28.091" y2="-7.317" xlink:href="#linear-gradient"/>
    <linearGradient id="linear-gradient-23" x1="-7.868" y1="2.202" x2="27.935" y2="-5.081" xlink:href="#linear-gradient"/>
    <linearGradient id="linear-gradient-24" x1="-6.031" y1="1.988" x2="29.774" y2="-6.184" xlink:href="#linear-gradient"/>
    <linearGradient id="linear-gradient-25" x1="-5.979" y1="1.99" x2="29.788" y2="-6.251" xlink:href="#linear-gradient"/>
    <linearGradient id="linear-gradient-26" x1="-6.752" y1="2.272" x2="24.869" y2="-5.395" xlink:href="#linear-gradient"/>
    <linearGradient id="linear-gradient-27" x1="-5.342" y1="2.007" x2="26.738" y2="-6.274" xlink:href="#linear-gradient"/>
    <linearGradient id="linear-gradient-28" x1="-2.102" y1="2.04" x2="10.576" y2="-5.42" xlink:href="#linear-gradient"/>
    <linearGradient id="linear-gradient-29" x1="-6.008" y1="1.988" x2="29.797" y2="-6.217" xlink:href="#linear-gradient"/>
    <linearGradient id="linear-gradient-30" x1="-7.846" y1="2.221" x2="27.958" y2="-5.164" xlink:href="#linear-gradient"/>
    <linearGradient id="linear-gradient-31" x1="-5.64" y1="2.015" x2="16.025" y2="-3.331" xlink:href="#linear-gradient"/>
    <linearGradient id="linear-gradient-32" x1="-4.539" y1="2.042" x2="13.363" y2="-3.622" xlink:href="#linear-gradient"/>
    <linearGradient id="linear-gradient-33" x1="-7.409" y1="3.499" x2="20.524" y2="-7.358" xlink:href="#linear-gradient"/>
    <linearGradient id="linear-gradient-34" x1="-4.562" y1="0.98" x2="13.339" y2="-0.691" xlink:href="#linear-gradient"/>
    <linearGradient id="linear-gradient-35" x1="-9.347" y1="2.308" x2="26.456" y2="-4.265" xlink:href="#linear-gradient"/>
    <linearGradient id="linear-gradient-36" x1="-9.369" y1="2.27" x2="26.435" y2="-4.151" xlink:href="#linear-gradient"/>
    <linearGradient id="linear-gradient-37" x1="-5.63" y1="2.062" x2="16.047" y2="-3.462" xlink:href="#linear-gradient"/>
    <linearGradient id="linear-gradient-38" x1="-5.802" y1="2.167" x2="16.481" y2="-3.748" xlink:href="#linear-gradient"/>
    <linearGradient id="linear-gradient-39" x1="-6.774" y1="2.078" x2="20.008" y2="-3.732" xlink:href="#linear-gradient"/>
    <linearGradient id="linear-gradient-40" x1="-11.236" y1="3.624" x2="24.569" y2="-5.907" xlink:href="#linear-gradient"/>
    <linearGradient id="linear-gradient-41" x1="-10.884" y1="2.091" x2="23.442" y2="-2.715" xlink:href="#linear-gradient"/>
    <linearGradient id="linear-gradient-42" x1="-13.131" y1="2.325" x2="22.667" y2="-2.468" xlink:href="#linear-gradient"/>
    <linearGradient id="linear-gradient-43" x1="-15.74" y1="6.257" x2="27.444" y2="-9.051" xlink:href="#linear-gradient"/>
    <linearGradient id="linear-gradient-44" x1="-11.291" y1="2.157" x2="24.514" y2="-2.875" xlink:href="#linear-gradient"/>
    <linearGradient id="linear-gradient-45" x1="-4.032" y1="0.874" x2="8.636" y2="-0.171" xlink:href="#linear-gradient"/>
    <linearGradient id="linear-gradient-46" x1="-11.249" y1="2.231" x2="24.555" y2="-3.045" xlink:href="#linear-gradient"/>
    <linearGradient id="linear-gradient-47" x1="-11.332" y1="2.108" x2="24.472" y2="-2.758" xlink:href="#linear-gradient"/>
    <linearGradient id="linear-gradient-48" x1="-13.078" y1="2.618" x2="22.727" y2="-2.967" xlink:href="#linear-gradient"/>
    <linearGradient id="linear-gradient-49" x1="-13.115" y1="2.408" x2="22.69" y2="-2.61" xlink:href="#linear-gradient"/>
    <linearGradient id="linear-gradient-50" x1="-13.06" y1="2.728" x2="22.745" y2="-3.156" xlink:href="#linear-gradient"/>
    <linearGradient id="linear-gradient-51" x1="-13.097" y1="2.519" x2="22.708" y2="-2.798" xlink:href="#linear-gradient"/>
    <linearGradient id="linear-gradient-52" x1="-11.27" y1="2.191" x2="24.535" y2="-2.952" xlink:href="#linear-gradient"/>
    <linearGradient id="linear-gradient-53" x1="-11.311" y1="2.13" x2="24.493" y2="-2.812" xlink:href="#linear-gradient"/>
    <linearGradient id="linear-gradient-54" x1="-5.021" y1="1.04" x2="7.462" y2="-0.197" xlink:href="#linear-gradient"/>
    <linearGradient id="linear-gradient-55" x1="-5.887" y1="1.948" x2="8.763" y2="-1.394" xlink:href="#linear-gradient"/>
    <linearGradient id="linear-gradient-56" x1="-5.313" y1="1.803" x2="7.955" y2="-1.185" xlink:href="#linear-gradient"/>
    <linearGradient id="linear-gradient-57" x1="-16.359" y1="3.028" x2="20.047" y2="-2.363" xlink:href="#linear-gradient"/>
    <linearGradient id="linear-gradient-58" x1="-10.876" y1="3.473" x2="15.506" y2="-3.476" xlink:href="#linear-gradient"/>
    <linearGradient id="linear-gradient-59" x1="-7.089" y1="2.242" x2="10.403" y2="-1.814" xlink:href="#linear-gradient"/>
    <linearGradient id="linear-gradient-60" x1="-9.21" y1="1.003" x2="9.634" y2="0.021" xlink:href="#linear-gradient"/>
    <linearGradient id="linear-gradient-61" x1="-17.394" y1="7.379" x2="18.41" y2="-6.385" xlink:href="#linear-gradient"/>
    <linearGradient id="linear-gradient-62" x1="-17.406" y1="5.202" x2="18.398" y2="-4.2" xlink:href="#linear-gradient"/>
    <linearGradient id="linear-gradient-63" x1="-8.272" y1="1.077" x2="6.019" y2="0.111" xlink:href="#linear-gradient"/>
    <linearGradient id="linear-gradient-64" x1="-26.259" y1="15.482" x2="17.024" y2="-8.589" xlink:href="#linear-gradient"/>
    <linearGradient id="linear-gradient-65" x1="-9.11" y1="4.466" x2="6.579" y2="-1.973" xlink:href="#linear-gradient"/>
    <linearGradient id="linear-gradient-66" x1="-11.734" y1="5.439" x2="8.157" y2="-2.522" xlink:href="#linear-gradient"/>
    <linearGradient id="linear-gradient-67" x1="-19.33" y1="5.125" x2="9.609" y2="-1.576" xlink:href="#linear-gradient"/>
    <linearGradient id="linear-gradient-68" x1="-11.656" y1="1.051" x2="6.246" y2="0.217" xlink:href="#linear-gradient"/>
    <linearGradient id="linear-gradient-69" x1="-14.962" y1="3.724" x2="7.732" y2="-1.001" xlink:href="#linear-gradient"/>
    <linearGradient id="linear-gradient-70" x1="-43.769" y1="14.543" x2="20.21" y2="-5.742" xlink:href="#linear-gradient"/>
    <linearGradient id="linear-gradient-71" x1="-16.159" y1="4.131" x2="8.252" y2="-1.173" xlink:href="#linear-gradient"/>
    <linearGradient id="linear-gradient-72" x1="-14.441" y1="4.528" x2="7.504" y2="-1.418" xlink:href="#linear-gradient"/>
    <linearGradient id="linear-gradient-73" x1="-25.517" y1="3.88" x2="10.286" y2="-0.771" xlink:href="#linear-gradient"/>
    <linearGradient id="linear-gradient-74" x1="-25.553" y1="3.682" x2="10.251" y2="-0.691" xlink:href="#linear-gradient"/>
    <linearGradient id="linear-gradient-75" x1="-25.5" y1="3.976" x2="10.304" y2="-0.811" xlink:href="#linear-gradient"/>
    <linearGradient id="linear-gradient-76" x1="-25.482" y1="4.182" x2="10.321" y2="-0.887" xlink:href="#linear-gradient"/>
    <linearGradient id="linear-gradient-77" x1="-25.609" y1="1.6" x2="10.194" y2="0.062" xlink:href="#linear-gradient"/>
    <linearGradient id="linear-gradient-78" x1="-35.182" y1="8.423" x2="13.756" y2="-2.312" xlink:href="#linear-gradient"/>
    <linearGradient id="linear-gradient-79" x1="-25.535" y1="3.779" x2="10.269" y2="-0.73" xlink:href="#linear-gradient"/>
    <linearGradient id="linear-gradient-80" x1="-155.45" y1="17.767" x2="38.131" y2="-3.694" xlink:href="#linear-gradient"/>
    <linearGradient id="linear-gradient-81" x1="-27.744" y1="3.395" x2="9.279" y2="-0.397" xlink:href="#linear-gradient"/>
    <linearGradient id="linear-gradient-82" x1="-10.448" y1="1.863" x2="3.486" y2="0.123" xlink:href="#linear-gradient"/>
    <linearGradient id="linear-gradient-83" x1="-11.46" y1="1.965" x2="3.815" y2="0.087" xlink:href="#linear-gradient"/>
    <linearGradient id="linear-gradient-84" x1="-28.931" y1="3.649" x2="9.612" y2="-0.473" xlink:href="#linear-gradient"/>
    <linearGradient id="linear-gradient-85" x1="-69.278" y1="8.181" x2="16.723" y2="-1.276" xlink:href="#linear-gradient"/>
    <linearGradient id="linear-gradient-86" x1="-27.947" y1="3.859" x2="9.17" y2="-0.525" xlink:href="#linear-gradient"/>
    <linearGradient id="linear-gradient-87" x1="-23.183" y1="3.999" x2="7.472" y2="-0.543" xlink:href="#linear-gradient"/>
    <linearGradient id="linear-gradient-88" x1="-18.279" y1="4.714" x2="5.251" y2="-0.522" xlink:href="#linear-gradient"/>
    <linearGradient id="linear-gradient-89" x1="-13.554" y1="3.222" x2="4.117" y2="-0.197" xlink:href="#linear-gradient"/>
    <linearGradient id="linear-gradient-90" x1="-29.653" y1="4.173" x2="7.431" y2="-0.34" xlink:href="#linear-gradient"/>
    <linearGradient id="linear-gradient-91" x1="-13.178" y1="2.148" x2="4.357" y2="0.012" xlink:href="#linear-gradient"/>
    <linearGradient id="linear-gradient-92" x1="-13.703" y1="2.946" x2="4.305" y2="-0.161" xlink:href="#linear-gradient"/>
    <linearGradient id="linear-gradient-93" x1="-11.978" y1="3.646" x2="2.409" y2="0.056" xlink:href="#linear-gradient"/>
    <linearGradient id="linear-gradient-94" x1="-31.797" y1="12.899" x2="4.581" y2="-0.854" xlink:href="#linear-gradient"/>
    <linearGradient id="linear-gradient-95" x1="-21.564" y1="5.214" x2="4.413" y2="-0.378" xlink:href="#linear-gradient"/>
    <linearGradient id="linear-gradient-96" x1="-10.89" y1="2.939" x2="2.28" y2="0.127" xlink:href="#linear-gradient"/>
    <linearGradient id="linear-gradient-97" x1="-24.705" y1="4.169" x2="3.734" y2="0.048" xlink:href="#linear-gradient"/>
    <linearGradient id="linear-gradient-98" x1="-24.648" y1="4.928" x2="4.838" y2="-0.275" xlink:href="#linear-gradient"/>
    <linearGradient id="linear-gradient-99" x1="-28.455" y1="4.141" x2="6.009" y2="-0.19" xlink:href="#linear-gradient"/>
    <linearGradient id="linear-gradient-100" x1="-26.553" y1="4.122" x2="3.912" y2="0.048" xlink:href="#linear-gradient"/>
    <linearGradient id="linear-gradient-101" x1="-16.272" y1="3.222" x2="3.144" y2="0.044" xlink:href="#linear-gradient"/>
    <linearGradient id="linear-gradient-102" x1="-10.657" y1="2.457" x2="2.233" y2="0.195" xlink:href="#linear-gradient"/>
    <linearGradient id="linear-gradient-103" x1="-14.034" y1="3.42" x2="2.667" y2="0.048" xlink:href="#linear-gradient"/>
    <linearGradient id="linear-gradient-104" x1="-58.274" y1="11.786" x2="15.563" y2="-2.373" xlink:href="#linear-gradient"/>
  </defs>
  <g id="Grupo_2432" data-name="Grupo 2432" transform="translate(7379.141 2245.366)">
    <rect id="Rectángulo_607" data-name="Rectángulo 607" width="9.282" height="5.156" transform="translate(-7177.873 -2245.288)" fill="url(#linear-gradient)"/>
    <path id="Trazado_1233" data-name="Trazado 1233" d="M-6900.841-2146.594v-1.247q-3.028.112-6.041.114-1.435,0-2.865-.027v1.293Q-6905.327-2146.416-6900.841-2146.594Z" transform="translate(-321.519 -66.801)" fill="url(#linear-gradient-2)"/>
    <path id="Trazado_1234" data-name="Trazado 1234" d="M-6900.841-2198.713v-22.746h-8.906v22.844Q-6905.314-2198.541-6900.841-2198.713Z" transform="translate(-321.519 -16.375)" fill="url(#linear-gradient-3)"/>
    <path id="Trazado_1235" data-name="Trazado 1235" d="M-6894.957-2245.366h-7.829l-3.671,5.328h6.187Z" transform="translate(-323.772 0)" fill="url(#linear-gradient-4)"/>
    <path id="Trazado_1236" data-name="Trazado 1236" d="M-6900.841-2141.992v-.475q-3.471.134-6.91.136c-.667,0-1.331-.012-2-.019v.358Z" transform="translate(-321.519 -70.482)" fill="url(#linear-gradient-5)"/>
    <path id="Trazado_1237" data-name="Trazado 1237" d="M-7370.048-2182.289c-3.37.278-6.353.572-9.094.9v2.583c3.091-.364,6.144-.646,9.094-.868Z" transform="translate(0 -43.205)" fill="url(#linear-gradient-6)"/>
    <path id="Trazado_1238" data-name="Trazado 1238" d="M-7370.048-2200.08c-3.058.288-6.1.63-9.094,1.014v2.566c2.831-.358,5.842-.684,9.094-.985Z" transform="translate(0 -31.019)" fill="url(#linear-gradient-7)"/>
    <path id="Trazado_1239" data-name="Trazado 1239" d="M-7370.048-2191.2c-3.252.291-6.263.608-9.094.956v2.574c2.741-.333,5.723-.636,9.094-.925Z" transform="translate(0 -37.101)" fill="url(#linear-gradient-8)"/>
    <path id="Trazado_1240" data-name="Trazado 1240" d="M-7374.748-2162.728c.411-.031.822-.061,1.231-.095l1.743-.135,5.237-.309,3.5-.15c1.563-.078,3.158-.122,4.7-.164.765-.022,1.528-.042,2.292-.068.635-.015,1.265-.026,1.9-.038v-2.57h-3.1l-.556.016c-1.7.048-3.451.1-5.177.185l-3.509.161-3.508.212c-3.314.23-6.288.464-9.134.771v2.589l2.139-.217C-7376.252-2162.617-7375.487-2162.673-7374.748-2162.728Z" transform="translate(0 -54.188)" fill="url(#linear-gradient-9)"/>
    <path id="Trazado_1241" data-name="Trazado 1241" d="M-7356.109-2148.094c-5.13.1-9.682.251-13.907.469-3.2.178-6.188.36-9.125.641v1.117h24.985v-2.257q-.971.013-1.953.03Z" transform="translate(0 -66.607)" fill="url(#linear-gradient-10)"/>
    <path id="Trazado_1242" data-name="Trazado 1242" d="M-7370.048-2208.945c-2.911.286-5.92.636-9.094,1.055v2.577c3-.393,6.036-.745,9.094-1.042Z" transform="translate(0 -24.947)" fill="url(#linear-gradient-11)"/>
    <path id="Trazado_1243" data-name="Trazado 1243" d="M-7356.114-2154.625q.984-.019,1.958-.036v-2.64c-.63.011-1.256.019-1.889.032-.762.023-1.525.041-2.289.06-1.54.037-3.133.076-4.7.15l-3.494.139-5.233.293-1.744.129c-.411.033-.823.062-1.235.091-.738.052-1.5.106-2.247.181h0l-2.156.211v2.573c2.935-.291,5.923-.482,9.113-.669C-7365.8-2154.344-7361.247-2154.512-7356.114-2154.625Z" transform="translate(0 -60.32)" fill="url(#linear-gradient-12)"/>
    <path id="Trazado_1244" data-name="Trazado 1244" d="M-7366.513-2170.971l3.059-.149h-6.594v-2.238c-2.95.213-6,.486-9.094.841v2.57c3.2-.354,6.313-.6,9.121-.8Z" transform="translate(0 -49.323)" fill="url(#linear-gradient-13)"/>
    <path id="Trazado_1245" data-name="Trazado 1245" d="M-7370.048-2245.119h-9.094v12.277c3.173-.43,6.181-.788,9.094-1.083Z" transform="translate(0 -0.169)" fill="url(#linear-gradient-14)"/>
    <path id="Trazado_1246" data-name="Trazado 1246" d="M-7291.375-2210.231l4.348-.015v-2.627h-.543l-3.624,0-4.74.114v2.637Z" transform="translate(-56.993 -22.256)" fill="url(#linear-gradient-15)"/>
    <path id="Trazado_1247" data-name="Trazado 1247" d="M-7287.028-2219.033v-2.426h-8.907v2.568l4.736-.127Z" transform="translate(-56.993 -16.375)" fill="url(#linear-gradient-16)"/>
    <path id="Trazado_1248" data-name="Trazado 1248" d="M-7242.353-2182.105c.418.015.834.028,1.251.04.748.022,1.521.044,2.284.085l3.394.175v-2.529l-.952-.057c-1.889-.115-3.844-.232-5.768-.287-.42-.014-.839-.032-1.259-.047l-.929-.036v2.173c0,.145-.006.283-.014.42l.74.023C-7243.187-2182.13-7242.771-2182.116-7242.353-2182.105Z" transform="translate(-92.331 -41.512)" fill="url(#linear-gradient-17)"/>
    <path id="Trazado_1249" data-name="Trazado 1249" d="M-7242.1-2191.28c1.931.048,3.891.16,5.785.269l.925.053v-2.527c-.466-.03-.932-.058-1.4-.09-1.665-.111-3.387-.225-5.083-.276l-2.426-.095v2.589l.936.033C-7242.945-2191.309-7242.523-2191.294-7242.1-2191.28Z" transform="translate(-92.361 -35.22)" fill="url(#linear-gradient-18)"/>
    <path id="Trazado_1250" data-name="Trazado 1250" d="M-7278.595-2154.811c2.832.051,5.623.127,8.391.23l.515.021v-2.523c-.11,0-.222-.011-.332-.014-7.837-.359-16.01-.486-24.347-.378a8.42,8.42,0,0,0,1.3,2.626c4.682-.054,9.2-.046,13.625.025.3-.321.585-.649.846-.989Z" transform="translate(-58.066 -60.177)" fill="url(#linear-gradient-19)"/>
    <path id="Trazado_1251" data-name="Trazado 1251" d="M-7280.876-2145.654c.15-.035.3-.073.441-.118a9.538,9.538,0,0,0,2.063-.914,9.4,9.4,0,0,0,1.689-1.289c.079-.077.148-.159.227-.237-4.267-.079-8.627-.1-13.136-.064.1.118.2.235.3.348a7.481,7.481,0,0,0,4.038,2.27C-7283.784-2145.661-7282.321-2145.661-7280.876-2145.654Z" transform="translate(-61.338 -66.492)" fill="url(#linear-gradient-20)"/>
    <path id="Trazado_1252" data-name="Trazado 1252" d="M-7237.75-2218.543l.044,0c.427.033.853.063,1.279.092l1.032.073v-3.084h-8.907v2.565l2.975.134C-7240.131-2218.72-7238.921-2218.63-7237.75-2218.543Z" transform="translate(-92.361 -16.375)" fill="url(#linear-gradient-21)"/>
    <path id="Trazado_1253" data-name="Trazado 1253" d="M-7244.3-2147.966v2.208h8.907v-1.928l-.529-.024C-7238.687-2147.822-7241.475-2147.907-7244.3-2147.966Z" transform="translate(-92.361 -66.716)" fill="url(#linear-gradient-22)"/>
    <path id="Trazado_1254" data-name="Trazado 1254" d="M-7239.8-2209.578l4.41.292v-2.527c-.354-.027-.706-.053-1.051-.077-.426-.032-.856-.062-1.284-.1l-.034,0c-1.172-.09-2.384-.184-3.579-.228l-2.959-.142v2.6Z" transform="translate(-92.361 -22.608)" fill="url(#linear-gradient-23)"/>
    <path id="Trazado_1255" data-name="Trazado 1255" d="M-7291.54-2201l4.512-.016v-2.627l-4.344,0-4.562.1v2.64l.819-.017Z" transform="translate(-56.993 -28.577)" fill="url(#linear-gradient-24)"/>
    <path id="Trazado_1256" data-name="Trazado 1256" d="M-7291.828-2182.546l3.535-.011,1.276,0c0-.106-.011-.21-.011-.319v-2.308c-.385,0-.757,0-1.105,0h-3.555l-3.945.067-.3.006v2.642c.687-.014,1.372-.026,2.043-.038Q-7292.859-2182.526-7291.828-2182.546Z" transform="translate(-56.993 -41.22)" fill="url(#linear-gradient-25)"/>
    <path id="Trazado_1257" data-name="Trazado 1257" d="M-7241.367-2175.361c-.756-.042-1.526-.066-2.272-.092-.417-.013-.837-.027-1.255-.043s-.836-.028-1.255-.044l-.751-.026a3.965,3.965,0,0,1-1.016,2.464c-.039.04-.082.076-.123.114q5.049.1,9.983.337l.1.005v-2.53Z" transform="translate(-89.8 -47.811)" fill="url(#linear-gradient-26)"/>
    <path id="Trazado_1258" data-name="Trazado 1258" d="M-7285.994-2173.32c-.015-.017-.034-.032-.048-.049a4.176,4.176,0,0,1-.962-2.587h-4.82c-.683.012-1.362.021-2.043.031s-1.372.019-2.067.031v2.15c0,.166,0,.329.009.491Q-7290.931-2173.352-7285.994-2173.32Z" transform="translate(-56.993 -47.542)" fill="url(#linear-gradient-27)"/>
    <path id="Trazado_1259" data-name="Trazado 1259" d="M-7271.038-2163.747l.319.013v-2.53l-.119-.006q-5.093-.262-10.319-.377a3.7,3.7,0,0,1-2.22.672,3.473,3.473,0,0,1-2.262-.741q-5.082-.051-10.233.033a12.131,12.131,0,0,0,.4,2.635C-7287.106-2164.183-7278.9-2164.082-7271.038-2163.747Z" transform="translate(-57.036 -53.859)" fill="url(#linear-gradient-28)"/>
    <path id="Trazado_1260" data-name="Trazado 1260" d="M-7291.691-2191.773l3.557-.011c.348,0,.721,0,1.107,0v-2.626l-4.51,0-3.572.069-.824.014v2.644l.31-.007Z" transform="translate(-56.993 -34.9)" fill="url(#linear-gradient-29)"/>
    <path id="Trazado_1261" data-name="Trazado 1261" d="M-7241.863-2200.471c1.7.047,3.425.156,5.095.261l1.374.084v-2.526l-4.427-.307-4.479-.2v2.6Z" transform="translate(-92.361 -28.912)" fill="url(#linear-gradient-30)"/>
    <path id="Trazado_1262" data-name="Trazado 1262" d="M-7192.967-2170.1l1.746.22c.412.055.825.106,1.239.156.739.09,1.5.184,2.249.307l2.327.393v-1.949a10.075,10.075,0,0,1-1.642.642,6.1,6.1,0,0,1-1.734.249,2.532,2.532,0,0,1-1.827-.588,2.375,2.375,0,0,1-.6-1.605c-1.608-.236-3.247-.4-4.836-.564-.646-.065-1.288-.13-1.935-.2-.714-.064-1.44-.119-2.146-.172v2.286c0,.069,0,.135,0,.2l1.9.131Z" transform="translate(-122.62 -49.422)" fill="url(#linear-gradient-31)"/>
    <path id="Trazado_1263" data-name="Trazado 1263" d="M-7205.3-2207.11l1.788.223c.422.055.842.107,1.263.159.758.093,1.543.189,2.311.3l2.2.35v-.429h5.906v-.817c-1.366-.294-2.764-.579-4.205-.852l-4.461-.749-2.687-.364c-1.835-.271-3.71-.462-5.523-.646l-.936-.1v2.5Z" transform="translate(-116.097 -24.204)" fill="url(#linear-gradient-32)"/>
    <path id="Trazado_1264" data-name="Trazado 1264" d="M-7193.5-2145.87c.052.047.1.1.154.141a9.358,9.358,0,0,0,6.291,1.922,13.026,13.026,0,0,0,3.425-.422,14.345,14.345,0,0,0,1.547-.516c-1.617-.235-3.32-.439-5.162-.616C-7189.375-2145.573-7191.472-2145.736-7193.5-2145.87Z" transform="translate(-127.156 -68.151)" fill="url(#linear-gradient-33)"/>
    <path id="Trazado_1265" data-name="Trazado 1265" d="M-7203.142-2233.661l2.694.361,4.472.746q2.125.4,4.141.834v-5.945h-5.906v-7.454h-8.907v7.454h-3v3.265l.747.075C-7207.011-2234.136-7205.056-2233.94-7203.142-2233.661Z" transform="translate(-116.097 -0.169)" fill="url(#linear-gradient-34)"/>
    <path id="Trazado_1266" data-name="Trazado 1266" d="M-7200.125-2182.181v2.484c.718.052,1.453.107,2.18.172.647.069,1.292.134,1.938.2,1.572.157,3.194.322,4.788.552v-2.392C-7194.22-2181.611-7197.214-2181.928-7200.125-2182.181Z" transform="translate(-122.62 -43.28)" fill="url(#linear-gradient-35)"/>
    <path id="Trazado_1267" data-name="Trazado 1267" d="M-7191.219-2187.659v-2.39l-.327-.05c-.745-.115-1.517-.233-2.276-.34l-3.546-.422c-.915-.12-1.846-.205-2.757-.286v2.484C-7197.271-2188.42-7194.24-2188.1-7191.219-2187.659Z" transform="translate(-122.62 -37.138)" fill="url(#linear-gradient-36)"/>
    <path id="Trazado_1268" data-name="Trazado 1268" d="M-7196.2-2161.457c.411.037.822.074,1.234.107l.721.062c.907.078,1.846.157,2.764.278l3.473.413,2.618.42v-2.333l-2.384-.405c-.742-.123-1.5-.218-2.239-.308-.413-.051-.827-.1-1.237-.158l-1.741-.221-5.243-.5-1.868-.13a12.5,12.5,0,0,0,.31,2.51c.446.028.892.057,1.338.083C-7197.7-2161.592-7196.937-2161.524-7196.2-2161.457Z" transform="translate(-122.638 -55.575)" fill="url(#linear-gradient-37)"/>
    <path id="Trazado_1269" data-name="Trazado 1269" d="M-7184.518-2153.6l-2.668-.43-3.465-.416c-.912-.122-1.846-.2-2.749-.28l-.723-.063c-.413-.034-.827-.072-1.241-.109-.734-.068-1.492-.136-2.239-.181l-1.225-.078a6.424,6.424,0,0,0,1.316,2.559c2.395.152,4.563.324,6.648.528,2.066.2,3.958.426,5.753.7.2-.094.4-.193.592-.3Z" transform="translate(-123.508 -61.786)" fill="url(#linear-gradient-38)"/>
    <path id="Trazado_1270" data-name="Trazado 1270" d="M-7206.648-2200.332v2.083c.924.081,1.867.167,2.8.287l3.552.418c.765.107,1.539.226,2.289.34l.269.041v-2.387l-2.247-.36c-.765-.113-1.544-.21-2.3-.3-.422-.052-.844-.1-1.265-.16l-1.784-.225-4.312-.419v.686Z" transform="translate(-116.097 -30.377)" fill="url(#linear-gradient-39)"/>
    <path id="Trazado_1271" data-name="Trazado 1271" d="M-7135.313-2146.473c-1.41-.273-2.82-.554-4.216-.854-.2-.047-.4-.091-.6-.135-.361-.079-.738-.162-1.1-.256l-.488-.122c-.4-.1-.8-.2-1.207-.288l-1.288-.289v2.278c.082.017.165.032.248.051l.086.021h8.574Z" transform="translate(-160.912 -66.407)" fill="url(#linear-gradient-40)"/>
    <path id="Trazado_1272" data-name="Trazado 1272" d="M-7137.531-2195.393c.738.2,1.478.412,2.218.618a5.533,5.533,0,0,1,.381-2.14c-.742-.219-1.486-.442-2.227-.655-2.277-.67-4.62-1.288-7.062-1.863v2.312C-7141.956-2196.6-7139.721-2196.023-7137.531-2195.393Z" transform="translate(-160.912 -31.463)" fill="url(#linear-gradient-41)"/>
    <path id="Trazado_1273" data-name="Trazado 1273" d="M-7092.591-2182.6c1.976.567,3.945,1.134,5.884,1.694l3.022.873v-1.87l-3.446-1.086c-1.8-.569-3.626-1.144-5.462-1.716,0,.015,0,.03,0,.045Z" transform="translate(-196.276 -41.553)" fill="url(#linear-gradient-42)"/>
    <path id="Trazado_1274" data-name="Trazado 1274" d="M-7092.587-2145.6v1.463h7.383c-1.239-.247-2.476-.492-3.7-.733S-7091.352-2145.356-7092.587-2145.6Z" transform="translate(-196.279 -68.335)" fill="url(#linear-gradient-43)"/>
    <path id="Trazado_1275" data-name="Trazado 1275" d="M-7138.774-2170.278q1.723.415,3.461.813v-2.217q-1.592-.4-3.17-.8l-3.438-.891-2.3-.545v2.309l2.022.47Z" transform="translate(-160.912 -48.942)" fill="url(#linear-gradient-44)"/>
    <path id="Trazado_1276" data-name="Trazado 1276" d="M-7134.769-2228.544a3.3,3.3,0,0,1,.509-.707,3.565,3.565,0,0,1,2.694-1.1,3.353,3.353,0,0,1,2.627,1.1,4.379,4.379,0,0,1,.969,2.769c1.883.584,3.756,1.171,5.6,1.752l3.322,1.044v-5.213a9.725,9.725,0,0,0-2.287-6.844,8.244,8.244,0,0,0-6.385-2.485,8.02,8.02,0,0,0-4.547,1.22,12.581,12.581,0,0,0-3.048,2.812v-10.922h-8.905v14.026c2.479.58,4.856,1.2,7.166,1.879C-7136.293-2229-7135.531-2228.769-7134.769-2228.544Z" transform="translate(-160.912 -0.169)" fill="url(#linear-gradient-45)"/>
    <path id="Trazado_1277" data-name="Trazado 1277" d="M-7139.212-2155.717c-.646-.143-1.3-.308-1.934-.468-.493-.124-.985-.248-1.479-.364q-.609-.137-1.218-.279l-.378-.087v2.308l1.375.306c.407.086.814.188,1.209.287.162.041.324.082.489.121.362.093.736.175,1.1.253.2.044.4.087.6.134,1.37.293,2.751.567,4.136.834v-2.191Q-7137.269-2155.278-7139.212-2155.717Z" transform="translate(-160.912 -60.586)" fill="url(#linear-gradient-46)"/>
    <path id="Trazado_1278" data-name="Trazado 1278" d="M-7141.429-2187.948l3.453.916,2.661.706v-2.241c-.772-.217-1.545-.436-2.315-.65q-3.239-.934-6.59-1.711v2.313Z" transform="translate(-160.912 -37.289)" fill="url(#linear-gradient-47)"/>
    <path id="Trazado_1279" data-name="Trazado 1279" d="M-7092.587-2161.094v2.061l3.847.841c1.669.363,3.36.733,5.059,1.107v-1.853c-1.756-.427-3.506-.851-5.229-1.267Z" transform="translate(-196.279 -57.723)" fill="url(#linear-gradient-48)"/>
    <path id="Trazado_1280" data-name="Trazado 1280" d="M-7083.682-2172.317v-1.885q-1.575-.456-3.129-.907c-1.9-.552-3.838-1.111-5.776-1.67v2.1Z" transform="translate(-196.279 -46.979)" fill="url(#linear-gradient-49)"/>
    <path id="Trazado_1281" data-name="Trazado 1281" d="M-7092.587-2153.325v2.048c1.258.25,2.514.5,3.757.74,1.7.333,3.42.673,5.148,1.018v-1.848c-1.726-.383-3.446-.761-5.142-1.132Q-7090.692-2152.908-7092.587-2153.325Z" transform="translate(-196.279 -63.045)" fill="url(#linear-gradient-50)"/>
    <path id="Trazado_1282" data-name="Trazado 1282" d="M-7088.825-2165.909c1.7.407,3.417.822,5.144,1.24v-1.838l-8.905-2.374v2.065Z" transform="translate(-196.279 -52.389)" fill="url(#linear-gradient-51)"/>
    <path id="Trazado_1283" data-name="Trazado 1283" d="M-7142.536-2162.72c.5.115.988.24,1.479.363.632.158,1.283.321,1.928.464q1.9.428,3.815.834v-2.2q-1.781-.413-3.551-.838l-3.424-.862-1.933-.451v2.309l.475.109C-7143.343-2162.9-7142.939-2162.81-7142.536-2162.72Z" transform="translate(-160.912 -54.765)" fill="url(#linear-gradient-52)"/>
    <path id="Trazado_1284" data-name="Trazado 1284" d="M-7141.829-2179.542l3.438.887q1.531.389,3.077.771v-2.229l-6.21-1.656-2.7-.647v2.309Z" transform="translate(-160.912 -43.119)" fill="url(#linear-gradient-53)"/>
    <path id="Trazado_1285" data-name="Trazado 1285" d="M-7048.005-2205.155a5.826,5.826,0,0,1-1.145-2.387h16.97q.046-.468.047-.938v-.89a17.922,17.922,0,0,0-.774-5.321,12.694,12.694,0,0,0-2.345-4.407,11.285,11.285,0,0,0-3.96-3.023,13.21,13.21,0,0,0-5.672-1.125,12.661,12.661,0,0,0-5.156,1.031,12.4,12.4,0,0,0-4.055,2.836,12.765,12.765,0,0,0-2.648,4.219,14.188,14.188,0,0,0-.938,5.18v.094a15.667,15.667,0,0,0,.111,1.866c2.48.771,4.981,1.536,7.467,2.263Q-7049.063-2205.456-7048.005-2205.155Zm.216-10.286a3.738,3.738,0,0,1,2.9-1.242,4.018,4.018,0,0,1,3.025,1.242,5.559,5.559,0,0,1,1.427,3.352h-8.858A6.584,6.584,0,0,1-7047.789-2215.441Z" transform="translate(-220.188 -15.152)" fill="url(#linear-gradient-54)"/>
    <path id="Trazado_1286" data-name="Trazado 1286" d="M-7054.38-2163.931l4.915,1.3q1.155.3,2.309.613c1.5.4,3.062.818,4.6,1.2l.866.219,2.61.578c1.19.243,2.386.468,3.5.673l.279.046a14,14,0,0,0,1.754-1.24q-.784-.134-1.561-.274l-.989-.194c-.834-.163-1.7-.332-2.544-.513l-2.635-.6-.873-.223c-1.953-.484-3.922-1.036-5.823-1.57l-1.121-.314c-2.069-.583-4.15-1.179-6.221-1.776.081.234.167.465.261.692A13.156,13.156,0,0,0-7054.38-2163.931Z" transform="translate(-221.809 -54.364)" fill="url(#linear-gradient-55)"/>
    <path id="Trazado_1287" data-name="Trazado 1287" d="M-7050.243-2169.788l1.116.311c1.9.531,3.872,1.082,5.817,1.562l.872.221,2.626.591c.837.178,1.692.345,2.52.505l1,.2q.937.169,1.885.326a13.78,13.78,0,0,0,1.288-1.327c-.47-.085-.937-.174-1.392-.262q-.634-.122-1.266-.24c-.42-.083-.842-.162-1.262-.241-.754-.14-1.535-.286-2.3-.456l-3.19-.778q-.379.037-.777.036a5.891,5.891,0,0,1-3.54-1.031c-.076-.056-.148-.117-.219-.177-.941-.263-1.875-.532-2.792-.8-2.431-.714-4.873-1.463-7.3-2.219a12.887,12.887,0,0,0,.434,1.938C-7054.563-2171.011-7052.4-2170.393-7050.243-2169.788Z" transform="translate(-220.55 -49.178)" fill="url(#linear-gradient-56)"/>
    <path id="Trazado_1288" data-name="Trazado 1288" d="M-7002.953-2164.962c.42.077.837.155,1.257.238s.837.158,1.257.238c.532.1,1.076.2,1.621.3.02-.026.042-.05.062-.075l-4.921-4.078a9.6,9.6,0,0,1-2.671,1.969,6.314,6.314,0,0,1-1.166.4l2.271.551C-7004.486-2165.247-7003.707-2165.1-7002.953-2164.962Z" transform="translate(-254.551 -52.761)" fill="url(#linear-gradient-57)"/>
    <path id="Trazado_1289" data-name="Trazado 1289" d="M-7037.136-2147.469l-1.714-.458-3.435-.887q-.875-.221-1.757-.439a12.884,12.884,0,0,0,3.813,2.261,15.094,15.094,0,0,0,5.485.961,17.306,17.306,0,0,0,2.789-.217l-2.593-.566Z" transform="translate(-229.531 -65.834)" fill="url(#linear-gradient-58)"/>
    <path id="Trazado_1290" data-name="Trazado 1290" d="M-7047.257-2155.13l3.44.884,1.715.456,2.577.65,2.6.564.944.181a11.519,11.519,0,0,0,2.638-.975c.045-.024.087-.05.132-.074-1.053-.2-2.172-.407-3.305-.64l-2.62-.582-.869-.222c-1.546-.385-3.107-.8-4.619-1.209q-1.145-.307-2.291-.611l-4.525-1.207a11.862,11.862,0,0,0,1.737,2.175C-7048.89-2155.537-7048.07-2155.335-7047.257-2155.13Z" transform="translate(-224.46 -59.901)" fill="url(#linear-gradient-59)"/>
    <path id="Trazado_1291" data-name="Trazado 1291" d="M-6961.106-2200.1c.279.024.557.044.836.066v-4.931q0-4.406,1.874-6.445a6.959,6.959,0,0,1,5.391-2.04h.75v-9.375a7.187,7.187,0,0,0-5.063,1.406,10.433,10.433,0,0,0-2.953,4.125v-5.109h-8.907v21.385l3.567.5Z" transform="translate(-280.811 -15.432)" fill="url(#linear-gradient-60)"/>
    <path id="Trazado_1292" data-name="Trazado 1292" d="M-6967.651-2144.5h7.381v-.752c-.515-.036-1.033-.066-1.545-.107-2.494-.2-4.954-.455-7.361-.767v1.456C-6968.671-2144.608-6968.164-2144.551-6967.651-2144.5Z" transform="translate(-280.811 -67.978)" fill="url(#linear-gradient-61)"/>
    <path id="Trazado_1293" data-name="Trazado 1293" d="M-6961.78-2149.969q.752.058,1.51.11v-1.391l-.874-.07-4.517-.426-3.517-.494v1.506C-6966.758-2150.424-6964.288-2150.167-6961.78-2149.969Z" transform="translate(-280.811 -63.788)" fill="url(#linear-gradient-62)"/>
    <path id="Trazado_1294" data-name="Trazado 1294" d="M-6855.628-2202.381a9.162,9.162,0,0,0,.393-2.762v-.094a6.577,6.577,0,0,0-.7-3.141,6.747,6.747,0,0,0-1.922-2.227,11.85,11.85,0,0,0-2.86-1.547q-1.641-.634-3.515-1.149-1.969-.608-3.048-1.055t-1.078-1.2v-.094a1.062,1.062,0,0,1,.516-.914,2.761,2.761,0,0,1,1.547-.351,11.969,11.969,0,0,1,3.514.633,20.292,20.292,0,0,1,3.984,1.758l3.048-5.625a18.524,18.524,0,0,0-4.922-2.18,20.118,20.118,0,0,0-5.532-.773,13.886,13.886,0,0,0-4.054.563,9.83,9.83,0,0,0-3.211,1.617,7.444,7.444,0,0,0-2.133,2.625,8.016,8.016,0,0,0-.774,3.586v.094a6.768,6.768,0,0,0,.7,3.235,6.709,6.709,0,0,0,1.921,2.226,11.3,11.3,0,0,0,2.859,1.524,33.233,33.233,0,0,0,3.517,1.078,32.129,32.129,0,0,1,3.069.984q1.055.422,1.055,1.219v.094q0,1.36-2.3,1.36a13.733,13.733,0,0,1-4.219-.727,18.308,18.308,0,0,1-4.453-2.179l-3.329,5.344c.254.186.51.361.768.533q3.672-.186,7.352-.536Q-6862.407-2201.133-6855.628-2202.381Z" transform="translate(-343.572 -15.254)" fill="url(#linear-gradient-63)"/>
    <path id="Trazado_1295" data-name="Trazado 1295" d="M-6839.776-2141.736a10.894,10.894,0,0,0,1.128-.391q-3.634.48-7.367.833c.667.062,1.341.1,2.02.1A15.613,15.613,0,0,0-6839.776-2141.736Z" transform="translate(-365.173 -70.715)" fill="url(#linear-gradient-64)"/>
    <path id="Trazado_1296" data-name="Trazado 1296" d="M-6867.212-2152.524q6.973-.608,13.689-1.726a7.72,7.72,0,0,0,.617-1.062c.063-.133.123-.269.179-.407q-6.661,1.2-13.579,1.866-3.374.318-6.748.5a19.2,19.2,0,0,0,2.133,1.117Q-6869.067-2152.364-6867.212-2152.524Z" transform="translate(-346.652 -61.405)" fill="url(#linear-gradient-65)"/>
    <path id="Trazado_1297" data-name="Trazado 1297" d="M-6859.869-2146.5q5.453-.469,10.713-1.21a8.053,8.053,0,0,0,.825-.567,7.386,7.386,0,0,0,1.067-1.036q-6.486,1.047-13.224,1.63-1.406.119-2.808.215c.389.149.782.288,1.182.411A21.154,21.154,0,0,0-6859.869-2146.5Z" transform="translate(-353.336 -65.795)" fill="url(#linear-gradient-66)"/>
    <path id="Trazado_1298" data-name="Trazado 1298" d="M-6783.937-2147.77a9.539,9.539,0,0,0,3.161.877c.112-.021.227-.042.338-.064,2.655-.518,5.147-1.067,7.521-1.657v-1.62c-2.113.558-4.306,1.084-6.613,1.581Q-6781.716-2148.185-6783.937-2147.77Z" transform="translate(-407.694 -65.162)" fill="url(#linear-gradient-67)"/>
    <path id="Trazado_1299" data-name="Trazado 1299" d="M-6793.3-2221.88v-8.66h5.906v-7.125h-5.906v-7.454h-8.907v7.454h-3v7.125h3v10.359a14.993,14.993,0,0,0,.118,1.929q4.6-.972,9.035-2.2A3.536,3.536,0,0,1-6793.3-2221.88Z" transform="translate(-393.127 -0.169)" fill="url(#linear-gradient-68)"/>
    <path id="Trazado_1300" data-name="Trazado 1300" d="M-6785.372-2160.563c2.025-.485,3.972-.994,5.863-1.532v-1.608q-2.38.716-4.831,1.357-4.512,1.18-9.222,2.11a6.379,6.379,0,0,0,.667,1.272Q-6789.062-2159.691-6785.372-2160.563Z" transform="translate(-401.101 -55.936)" fill="url(#linear-gradient-69)"/>
    <path id="Trazado_1301" data-name="Trazado 1301" d="M-6762.325-2142.864c-1.6.385-3.259.752-4.984,1.1a12.693,12.693,0,0,0,3.015-.41A13.907,13.907,0,0,0-6762.325-2142.864Z" transform="translate(-419.083 -70.21)" fill="url(#linear-gradient-70)"/>
    <path id="Trazado_1302" data-name="Trazado 1302" d="M-6790.425-2153.926a4.978,4.978,0,0,0,.583.593,6.509,6.509,0,0,0,.807.583q2.5-.464,4.956-.992c2.345-.507,4.574-1.045,6.718-1.617v-1.612c-1.856.522-3.764,1.019-5.749,1.492Q-6786.69-2154.631-6790.425-2153.926Z" transform="translate(-403.25 -60.548)" fill="url(#linear-gradient-71)"/>
    <path id="Trazado_1303" data-name="Trazado 1303" d="M-6785.509-2164.46q2.517-.66,4.956-1.4v-.244a10.149,10.149,0,0,1-1.64.643,6.145,6.145,0,0,1-1.735.247,2.53,2.53,0,0,1-1.827-.588c-.034-.032-.063-.069-.1-.1q-4.525,1.26-9.234,2.247a9.664,9.664,0,0,0,.318,1.321C-6791.621-2162.965-6788.528-2163.668-6785.509-2164.46Z" transform="translate(-400.058 -54.29)" fill="url(#linear-gradient-72)"/>
    <path id="Trazado_1304" data-name="Trazado 1304" d="M-6733.579-2168.635q-.521.194-1.042.391-2.474.884-5.052,1.675v1.655q2.057-.6,4.028-1.256l.841-.276,2.494-.9c.357-.128.716-.273,1.063-.414.159-.065.321-.129.48-.193v-1.774l-.513.213C-6732.042-2169.209-6732.823-2168.917-6733.579-2168.635Z" transform="translate(-438.013 -51.809)" fill="url(#linear-gradient-73)"/>
    <path id="Trazado_1305" data-name="Trazado 1305" d="M-6730.767-2182.739v-1.787l-.365.154c-.549.23-1.1.46-1.646.7l-1.668.7-5.108,1.855-.119.044v1.672Q-6735.066-2180.926-6730.767-2182.739Z" transform="translate(-438.013 -41.673)" fill="url(#linear-gradient-74)"/>
    <path id="Trazado_1306" data-name="Trazado 1306" d="M-6736.441-2158.625l.588-.181c.364-.112.729-.223,1.091-.342l1.661-.573c.754-.245,1.5-.537,2.227-.819l.108-.042v-1.781l-.291.116c-.35.141-.71.287-1.072.416l-2.506.9-.846.276q-2.051.68-4.191,1.3v1.667Q-6738.022-2158.138-6736.441-2158.625Z" transform="translate(-438.013 -56.854)" fill="url(#linear-gradient-75)"/>
    <path id="Trazado_1307" data-name="Trazado 1307" d="M-6734.6-2153.615c-.363.119-.728.23-1.093.341l-.6.183q-1.655.507-3.383.977v1.549h.465c.685-.178,1.361-.359,2.022-.545l.723-.209c.865-.249,1.76-.507,2.624-.8q.3-.1.591-.193c.357-.116.716-.232,1.07-.355l1.411-.522v-1.789c-.706.275-1.433.556-2.165.793Z" transform="translate(-438.013 -61.911)" fill="url(#linear-gradient-76)"/>
    <path id="Trazado_1308" data-name="Trazado 1308" d="M-6732.974-2209.436c.545-.235,1.093-.465,1.641-.7l.566-.239v-11.089h-8.906v14.558l5.04-1.835Z" transform="translate(-438.013 -16.375)" fill="url(#linear-gradient-77)"/>
    <path id="Trazado_1309" data-name="Trazado 1309" d="M-6727.885-2146.767l-.6.193c-.87.3-1.767.555-2.635.8l-.732.21-.237.065h5.7l.361-.127c.152-.05.3-.1.451-.157v-1.8l-1.239.457C-6727.166-2147-6727.526-2146.883-6727.885-2146.767Z" transform="translate(-443.211 -66.98)" fill="url(#linear-gradient-78)"/>
    <path id="Trazado_1310" data-name="Trazado 1310" d="M-6739.673-2172.144c1.662-.515,3.281-1.056,4.876-1.627l1.044-.393c.75-.28,1.524-.571,2.279-.875l.707-.294v-1.777q-4.295,1.8-8.906,3.305Z" transform="translate(-438.013 -46.753)" fill="url(#linear-gradient-79)"/>
    <path id="Trazado_1311" data-name="Trazado 1311" d="M-6647.393-2171.314a11.247,11.247,0,0,1-1,1.043q.823-.292,1.647-.575Z" transform="translate(-500.536 -50.723)" fill="url(#linear-gradient-80)"/>
    <path id="Trazado_1312" data-name="Trazado 1312" d="M-6697.867-2183.387c.936-.49,1.885-.97,2.833-1.443,0-.056-.005-.11-.005-.167v-.093a6.444,6.444,0,0,1,.206-1.649l-1.947,1.014-.448.235c-.885.464-1.8.945-2.72,1.4l-.566.283c-.338.17-.687.346-1.035.509l-1.9.862a12.831,12.831,0,0,0,.4,1.606C-6701.246-2181.654-6699.5-2182.537-6697.867-2183.387Z" transform="translate(-462.826 -40.157)" fill="url(#linear-gradient-81)"/>
    <path id="Trazado_1313" data-name="Trazado 1313" d="M-6696.343-2208.312q-3.731,2.058-7.785,3.861a13.89,13.89,0,0,0,.13,1.732l1.759-.8c.346-.162.693-.337,1.031-.507l.557-.281c.825-.4,1.653-.84,2.455-1.26l.707-.369c.8-.416,1.608-.837,2.422-1.259a5.719,5.719,0,0,1,.968-1.643,4.7,4.7,0,0,1,1.593-1.214,4.643,4.643,0,0,1,2.015-.444,5.618,5.618,0,0,1,1.483.186q3.792-1.93,7.768-3.892a12.777,12.777,0,0,0-1.552-1.381q-2.361,1.266-4.685,2.519C-6690.379-2211.5-6693.381-2209.888-6696.343-2208.312Z" transform="translate(-462.36 -20.398)" fill="url(#linear-gradient-82)"/>
    <path id="Trazado_1314" data-name="Trazado 1314" d="M-6691.144-2216.423c-1.382.772-2.809,1.57-4.232,2.323q-.54.286-1.077.578c-.689.372-1.4.757-2.113,1.116l-3.248,1.59c-.7.365-1.423.7-2.148,1.03a13.647,13.647,0,0,0-.158,1.853q3.914-1.757,7.533-3.755c2.962-1.573,5.968-3.187,8.873-4.748q2.216-1.19,4.471-2.4c-.25-.172-.506-.339-.772-.5a9.789,9.789,0,0,0-1.052-.526l-3.986,2.272C-6689.754-2217.2-6690.448-2216.811-6691.144-2216.423Z" transform="translate(-462.365 -17.473)" fill="url(#linear-gradient-83)"/>
    <path id="Trazado_1315" data-name="Trazado 1315" d="M-6701.676-2174.982q.1.276.207.549c.134.327.282.643.437.952.151-.07.3-.14.451-.218,1.144-.56,2.171-1.073,3.144-1.569,1.326-.689,2.69-1.345,4.033-1.982-.015-.042-.033-.08-.048-.123a6.41,6.41,0,0,1-.337-1.541c-.877.44-1.756.887-2.622,1.341C-6697.974-2176.757-6699.783-2175.836-6701.676-2174.982Z" transform="translate(-464.039 -45.518)" fill="url(#linear-gradient-84)"/>
    <path id="Trazado_1316" data-name="Trazado 1316" d="M-6647.56-2196.757c.188.205.373.42.552.652l3.155-2.367q-1.389.635-2.784,1.288Q-6647.1-2196.973-6647.56-2196.757Z" transform="translate(-501.107 -32.121)" fill="url(#linear-gradient-85)"/>
    <path id="Trazado_1317" data-name="Trazado 1317" d="M-6698.434-2168.6c-.144.075-.292.143-.44.212a12.564,12.564,0,0,0,.859,1.355l1.77-.869c1.785-.918,3.647-1.748,5.45-2.551l.512-.228c-.074-.076-.149-.15-.219-.231a5.479,5.479,0,0,1-.783-1.228c-1.331.633-2.681,1.284-3.993,1.968C-6696.395-2169.6-6697.5-2169.056-6698.434-2168.6Z" transform="translate(-465.959 -50.158)" fill="url(#linear-gradient-86)"/>
    <path id="Trazado_1318" data-name="Trazado 1318" d="M-6693.436-2163.458l-1.687.827a12.368,12.368,0,0,0,.91,1.019c.075.075.153.147.231.221,3.1-1.505,6.288-2.792,9.261-3.9a4.661,4.661,0,0,1-1.617-.42,4.8,4.8,0,0,1-.965-.609l-.721.322C-6689.816-2165.2-6691.667-2164.371-6693.436-2163.458Z" transform="translate(-468.528 -54.144)" fill="url(#linear-gradient-87)"/>
    <path id="Trazado_1319" data-name="Trazado 1319" d="M-6673.228-2148.759a13.91,13.91,0,0,0,3.527.437,13.015,13.015,0,0,0,6.821-1.6,13.947,13.947,0,0,0,3.2-2.673c-2.715.692-5.207,1.361-7.6,2.041C-6669.566-2149.911-6671.476-2149.334-6673.228-2148.759Z" transform="translate(-483.525 -63.542)" fill="url(#linear-gradient-88)"/>
    <path id="Trazado_1320" data-name="Trazado 1320" d="M-6667.472-2162.007q-.922.28-1.848.556c-1.507.449-3.064.913-4.578,1.418-.391.128-.782.253-1.172.379-.7.223-1.419.455-2.125.7l-3.267,1.157c-.51.171-1.016.374-1.5.571l-1.636.654a14.567,14.567,0,0,0,1.476.751c.31.135.628.253.95.363l.022-.008c1.938-.646,4.044-1.286,6.628-2.016s5.3-1.453,8.285-2.2c.237-.3.469-.607.687-.93Z" transform="translate(-476.419 -57.098)" fill="url(#linear-gradient-89)"/>
    <path id="Trazado_1321" data-name="Trazado 1321" d="M-6652.382-2205.028c.359-.167.72-.333,1.078-.5,1.591-.746,3.188-1.475,4.834-2.211l1.008-.758a12.585,12.585,0,0,0-1.137-1.5q-3.808,1.88-7.461,3.744a4.022,4.022,0,0,1,.56.307A7.733,7.733,0,0,1-6652.382-2205.028Z" transform="translate(-496.655 -24.232)" fill="url(#linear-gradient-90)"/>
    <path id="Trazado_1322" data-name="Trazado 1322" d="M-6698.222-2215.079c.675-.34,1.352-.707,2.006-1.062.391-.211.781-.422,1.174-.63,1.423-.751,2.852-1.547,4.234-2.318q1.039-.579,2.082-1.155l3.643-2.072a14.31,14.31,0,0,0-4.912-.781,13.9,13.9,0,0,0-5.486,1.055,13.387,13.387,0,0,0-4.289,2.86,12.671,12.671,0,0,0-2.789,4.219,13.142,13.142,0,0,0-.71,2.35c.609-.28,1.217-.568,1.809-.877Z" transform="translate(-462.949 -15.254)" fill="url(#linear-gradient-91)"/>
    <path id="Trazado_1323" data-name="Trazado 1323" d="M-6678.407-2167.456a4.48,4.48,0,0,1-1.184.427,113.659,113.659,0,0,0-10.608,4.385,13.249,13.249,0,0,0,1.533,1.156c.088-.035.177-.072.265-.1l1.733-.691c.491-.2,1-.4,1.508-.571l3.277-1.156c.708-.244,1.431-.475,2.129-.7.393-.125.785-.251,1.177-.379,1.522-.506,3.086-.97,4.6-1.419.5-.147.993-.3,1.486-.445l-2.4-1.743q-1.488.511-2.978,1.046Z" transform="translate(-471.901 -52.516)" fill="url(#linear-gradient-92)"/>
    <path id="Trazado_1324" data-name="Trazado 1324" d="M-6606.462-2153.636a10.923,10.923,0,0,0,3.165-2.344v1.97c2.989-.484,5.927-.949,8.766-1.393v-3.585c-6.611,1.217-13.84,2.591-21,4.079l-1.159.243a7.532,7.532,0,0,0,2.521,1.4,10.569,10.569,0,0,0,3.265.511q1.969-.334,3.934-.658C-6606.8-2153.479-6606.629-2153.555-6606.462-2153.636Z" transform="translate(-522.248 -59.166)" fill="url(#linear-gradient-93)"/>
    <path id="Trazado_1325" data-name="Trazado 1325" d="M-6574.166-2144.5h8.766v-1.628c-2.837.447-5.777.915-8.766,1.4Z" transform="translate(-551.379 -67.975)" fill="url(#linear-gradient-94)"/>
    <path id="Trazado_1326" data-name="Trazado 1326" d="M-6609.453-2189.344a19.772,19.772,0,0,0-3.339-.273,15.686,15.686,0,0,0-4.078.493,8.652,8.652,0,0,0-3.118,1.5,6.975,6.975,0,0,0-1.74,2.013c1.3-.416,2.586-.821,3.848-1.216C-6615.133-2187.672-6612.331-2188.509-6609.453-2189.344Z" transform="translate(-518.802 -38.186)" fill="url(#linear-gradient-95)"/>
    <path id="Trazado_1327" data-name="Trazado 1327" d="M-6598.987-2168.253v-3.577c-3.126.662-6.044,1.293-8.814,1.907a3.613,3.613,0,0,1-1.053,1.677,4.6,4.6,0,0,1-3.209,1.125,3.443,3.443,0,0,1-2.252-.726,2.341,2.341,0,0,1-.455-.5c-1.651.383-3.266.763-4.857,1.145-1.24.3-2.426.587-3.573.873.039.1.076.191.12.285a7.342,7.342,0,0,0,1.494,2.176l1.493-.312C-6612.89-2165.668-6605.624-2167.039-6598.987-2168.253Z" transform="translate(-517.793 -50.369)" fill="url(#linear-gradient-96)"/>
    <path id="Trazado_1328" data-name="Trazado 1328" d="M-6580.964-2181.705a9.567,9.567,0,0,1,1.617.468v1.173a5.07,5.07,0,0,1-.071.861c2.733-.6,5.615-1.221,8.7-1.87v-3.563c-3.967.957-7.678,1.879-11.214,2.789A8.986,8.986,0,0,1-6580.964-2181.705Z" transform="translate(-546.058 -41.597)" fill="url(#linear-gradient-97)"/>
    <path id="Trazado_1329" data-name="Trazado 1329" d="M-6617.445-2218.346c1.194-.521,2.431-1.057,3.723-1.615q3.285-1.392,6.445-2.68c-.194,0-.386-.009-.587-.009a26.421,26.421,0,0,0-5.7.539,28.665,28.665,0,0,0-3.214.918q-.663.318-1.318.637Z" transform="translate(-521.291 -15.56)" fill="url(#linear-gradient-98)"/>
    <path id="Trazado_1330" data-name="Trazado 1330" d="M-6616.375-2170.262a2.819,2.819,0,0,1,.721-1.98q-2.4.635-4.725,1.27c-1.63.453-3.127.874-4.529,1.274v.045a8.509,8.509,0,0,0,.371,2.581c1.163-.288,2.366-.58,3.625-.881,1.553-.371,3.127-.74,4.737-1.112a2.906,2.906,0,0,1-.2-1.1Z" transform="translate(-516.623 -50.087)" fill="url(#linear-gradient-99)"/>
    <path id="Trazado_1331" data-name="Trazado 1331" d="M-6579.823-2205.169a3.522,3.522,0,0,1,1.141,2.041q4.121-1.176,8.471-2.356-.121-.555-.284-1.067a8.272,8.272,0,0,0-.988-2.074q-4.66,1.434-9.2,2.918A3.67,3.67,0,0,1-6579.823-2205.169Z" transform="translate(-546.916 -25.166)" fill="url(#linear-gradient-100)"/>
    <path id="Trazado_1332" data-name="Trazado 1332" d="M-6615.6-2217.749l.681,2.325,2.294-.9c4.466-1.712,8.959-3.36,13.447-4.934a11.994,11.994,0,0,0-1.192-.473,16.134,16.134,0,0,0-4.055-.74q-3.626,1.474-7.4,3.076C-6613.021-2218.872-6614.292-2218.321-6615.6-2217.749Z" transform="translate(-523.001 -15.683)" fill="url(#linear-gradient-101)"/>
    <path id="Trazado_1333" data-name="Trazado 1333" d="M-6608.852-2194.256v.423a12.15,12.15,0,0,0-1.741-.512c-3.182.922-6.272,1.847-9.294,2.778-1.415.445-2.861.9-4.325,1.373a7.661,7.661,0,0,0-.661,2.881c1.359-.386,2.81-.793,4.386-1.229,1.982-.539,4-1.076,6.067-1.616a4.776,4.776,0,0,1,1.012-.262c4.153-1.077,8.53-2.166,13.275-3.305v-.344a17.631,17.631,0,0,0-.261-3.142q-4.367,1.19-8.49,2.372A5.6,5.6,0,0,1-6608.852-2194.256Z" transform="translate(-516.647 -32.984)" fill="url(#linear-gradient-102)"/>
    <path id="Trazado_1334" data-name="Trazado 1334" d="M-6613-2211.679l.186.631a25.677,25.677,0,0,1,3.375-1.032,16.457,16.457,0,0,1,3.656-.375,8.354,8.354,0,0,1,2.251.271q4.74-1.548,9.627-3.05a8.127,8.127,0,0,0-.815-.925,8.874,8.874,0,0,0-2.091-1.531c-4.621,1.622-9.252,3.323-13.853,5.092Z" transform="translate(-524.783 -18.958)" fill="url(#linear-gradient-103)"/>
    <path id="Trazado_1335" data-name="Trazado 1335" d="M-6660.348-2166.553c.4-.146.795-.288,1.187-.428.084-.046.166-.092.246-.142a8.389,8.389,0,0,0,1.13-.879c-.337.12-.674.238-1.011.359-1.058.375-2.168.776-3.308,1.2.146.012.294.022.445.022A6.213,6.213,0,0,0-6660.348-2166.553Z" transform="translate(-491.145 -52.992)" fill="url(#linear-gradient-104)"/>
  </g>
</svg>
